<?xml version="1.0" encoding="UTF-8" standalone="no"?>
<!DOCTYPE svg PUBLIC "-//W3C//DTD SVG 1.1//EN" "http://www.w3.org/Graphics/SVG/1.1/DTD/svg11.dtd">
<svg width="100%" height="100%" viewBox="0 0 615 615" version="1.1"
    xmlns="http://www.w3.org/2000/svg" xmlns:xlink="http://www.w3.org/1999/xlink"
    xml:space="preserve" xmlns:serif="http://www.serif.com/"
    style="fill-rule:evenodd;clip-rule:evenodd;stroke-linecap:round;stroke-linejoin:round;stroke-miterlimit:1.5;"><g><g id="Globe"><path d="M221.473,15.477c1.261,31.803 3.235,61.701 5.964,91.367" style="fill:none;stroke-width:0.2rem;"/><path d="M232.925,158.593c22.918,185.465 74.002,328.163 135.462,446.769" style="fill:none;stroke-width:0.2rem;"/><ellipse cx="307.335" cy="307.335" rx="304.166" ry="304.167" style="fill:none;stroke-width:0.2rem;stroke-linecap:square;"/><path d="M350.607,6.229c0,-0 -72.04,54.984 -106.728,105.222" style="fill:none;stroke-width:0.2rem;"/><path d="M221.02,157.751c-101.426,256.202 -33,404.77 14.589,445.23" style="fill:none;stroke-width:0.2rem;"/><path d="M134.361,58.215c26.992,16.906 51.377,36.623 74.874,57.499" style="fill:none;stroke-width:0.2rem;"/><path d="M247.259,151.112c105.219,103.496 182.01,238.272 256.935,388.025" style="fill:none;stroke-width:0.2rem;"/><path d="M398.071,158.087c-3.472,53.341 -52.208,103.867 -120.425,120.876c-74.1,18.475 -145.862,-9.077 -168.913,-62.663" style="fill:none;stroke-width:0.2rem;"/><path d="M102.021,164.897c7.309,-50.516 54.024,-96.874 118.992,-113.073c70.874,-17.671 139.454,6.483 165.496,55.566" style="fill:none;stroke-width:0.2rem;"/><path d="M38.482,165.046c49.475,-31.52 107.885,-38.491 163.7,-33.516" style="fill:none;stroke-width:0.2rem;"/><path d="M254.325,139.505c55.522,11.841 104.167,32.389 132.682,47.151c102.854,53.248 174.298,141.257 202.616,234.086" style="fill:none;stroke-width:0.2rem;"/><path d="M3.171,306.042c15.812,-37.778 44.226,-71.884 79.469,-100.108" style="fill:none;stroke-width:0.2rem;"/><path d="M125.411,176.314c19.848,-11.725 40.585,-21.461 61.587,-28.99c5.812,-2.084 11.644,-3.998 17.483,-5.739" style="fill:none;stroke:#367ffa;stroke-width:0.2rem;"/><path d="M254.706,130.97c32.064,-4.131 70.773,-4.831 111.377,-0.737" style="fill:none;stroke:#367ffa;stroke-width:0.2rem;"/><path d="M417.513,137.798c77.559,15.648 152.323,50.504 188.891,113.841" style="fill:none;stroke-width:0.2rem;"/><path d="M25.387,193.96c-45.419,167.489 127.235,290.763 340.985,213.824c194.365,-69.961 237.045,-331.668 -15.765,-401.555" style="fill:none;stroke-width:0.2rem;"/><path d="M24.945,194.182c-45.419,167.489 127.677,290.541 341.427,213.602c194.365,-69.961 237.045,-331.668 -15.765,-401.555" style="fill:none;stroke-width:0.2rem;"/><path d="M79.964,509.555c104.503,64.19 214.622,62.791 336.05,7.74c116.853,-61.622 198.585,-141.47 190.39,-265.656" style="fill:none;stroke-width:0.2rem;"/><path d="M479.554,56.65c-84.957,2.581 -160.382,26.269 -227.092,64.816" style="fill:none;stroke-width:0.2rem;"/><path d="M210.702,151.92c-120.265,107.342 -177.885,230.993 -130.907,357.18" style="fill:none;stroke-width:0.2rem;"/></g><g><path d="M118.943,211.062c-0,-8.343 -6.866,-15.209 -15.209,-15.209c-8.343,0 -15.208,6.866 -15.208,15.209" style="fill:none;fill-rule:nonzero;stroke:#367ffa;stroke-width:0.2rem;stroke-miterlimit:4;"/><circle cx="103.734" cy="185.714" r="10.139" style="fill:none;stroke:#367ffa;stroke-width:0.2rem;stroke-miterlimit:4;"/><circle cx="103.734" cy="190.784" r="25.347" style="fill:none;stroke:#367ffa;stroke-width:0.2rem;stroke-miterlimit:4;"/></g><g><path d="M407.22,153.138c-0,-8.343 -6.866,-15.208 -15.209,-15.208c-8.343,0 -15.208,6.865 -15.208,15.208" style="fill:none;fill-rule:nonzero;stroke:#367ffa;stroke-width:0.2rem;stroke-miterlimit:4;"/><circle cx="392.011" cy="127.791" r="10.139" style="fill:none;stroke:#367ffa;stroke-width:0.2rem;stroke-miterlimit:4;"/><circle cx="392.011" cy="132.861" r="25.347" style="fill:none;stroke:#367ffa;stroke-width:0.2rem;stroke-miterlimit:4;"/></g><g><circle cx="228.834" cy="132.861" r="25.347" style="fill:none;stroke:#367ffa;stroke-width:0.2rem;stroke-miterlimit:4;"/><g><ellipse cx="228.834" cy="123.989" rx="11.406" ry="3.802" style="fill:none;stroke:#367ffa;stroke-width:0.2rem;stroke-miterlimit:4;"/><path d="M217.428,123.989l-0,17.743c-0,2.086 5.149,3.802 11.406,3.802c6.257,0 11.406,-1.716 11.406,-3.802l0,-17.743" style="fill:none;fill-rule:nonzero;stroke:#367ffa;stroke-width:0.2rem;stroke-miterlimit:4;"/><path d="M217.428,132.861c-0,2.085 5.149,3.802 11.406,3.802c6.257,-0 11.406,-1.717 11.406,-3.802" style="fill:none;fill-rule:nonzero;stroke:#367ffa;stroke-width:0.2rem;stroke-miterlimit:4;"/></g></g></g></svg>