<?xml version="1.0" encoding="UTF-8" standalone="no"?>
<!DOCTYPE svg PUBLIC "-//W3C//DTD SVG 1.1//EN" "http://www.w3.org/Graphics/SVG/1.1/DTD/svg11.dtd">
<svg width="100%" height="100%" viewBox="0 0 2488 300" version="1.1" xmlns="http://www.w3.org/2000/svg" xmlns:xlink="http://www.w3.org/1999/xlink" xml:space="preserve" xmlns:serif="http://www.serif.com/" style="fill-rule:evenodd;clip-rule:evenodd;stroke-linejoin:round;stroke-miterlimit:2;">
    <g transform="matrix(1,0,0,1,-718.26,-646.185)">
        <g transform="matrix(300,0,0,300,704.197,880.56)">
            <rect x="0.047" y="-0.728" width="0.197" height="0.728" style="fill-rule:nonzero;"/>
        </g>
        <g transform="matrix(300,0,0,300,776.502,880.56)">
            <path d="M0.246,-0.307L0.246,-0L0.05,-0L0.05,-0.546L0.234,-0.546L0.237,-0.423C0.251,-0.46 0.271,-0.491 0.298,-0.516C0.326,-0.54 0.363,-0.553 0.409,-0.553C0.448,-0.553 0.482,-0.544 0.51,-0.526C0.538,-0.509 0.561,-0.485 0.576,-0.454C0.592,-0.423 0.6,-0.387 0.6,-0.348L0.6,-0L0.403,-0L0.403,-0.307C0.403,-0.334 0.396,-0.355 0.383,-0.37C0.369,-0.386 0.35,-0.394 0.325,-0.394C0.301,-0.394 0.282,-0.386 0.268,-0.37C0.253,-0.355 0.246,-0.334 0.246,-0.307Z" style="fill-rule:nonzero;"/>
        </g>
        <g transform="matrix(300,0,0,300,956.326,880.56)">
            <path d="M0.369,-0.546L0.369,-0.403L0.275,-0.403L0.275,-0.175C0.275,-0.153 0.288,-0.141 0.313,-0.141C0.318,-0.141 0.327,-0.142 0.338,-0.143C0.349,-0.145 0.357,-0.146 0.36,-0.147L0.384,-0.007C0.361,-0.001 0.34,0.003 0.32,0.005C0.3,0.007 0.282,0.008 0.264,0.008C0.141,0.008 0.079,-0.047 0.079,-0.157L0.079,-0.403L0.01,-0.403L0.01,-0.546L0.079,-0.546L0.079,-0.676L0.275,-0.676L0.275,-0.546L0.369,-0.546Z" style="fill-rule:nonzero;"/>
        </g>
        <g transform="matrix(300,0,0,300,1058.22,880.56)">
            <path d="M0.312,0.01C0.224,0.01 0.155,-0.015 0.105,-0.065C0.055,-0.114 0.03,-0.183 0.03,-0.271C0.03,-0.328 0.042,-0.377 0.064,-0.419C0.087,-0.461 0.119,-0.494 0.16,-0.518C0.201,-0.541 0.25,-0.553 0.307,-0.553C0.362,-0.553 0.41,-0.541 0.45,-0.519C0.491,-0.496 0.522,-0.464 0.545,-0.422C0.567,-0.38 0.578,-0.33 0.578,-0.272L0.578,-0.228L0.223,-0.228C0.224,-0.194 0.233,-0.169 0.25,-0.152C0.267,-0.136 0.288,-0.128 0.315,-0.128C0.336,-0.128 0.353,-0.132 0.367,-0.14C0.382,-0.149 0.392,-0.16 0.397,-0.175L0.57,-0.15C0.556,-0.101 0.527,-0.062 0.483,-0.033C0.438,-0.005 0.381,0.01 0.312,0.01ZM0.224,-0.335L0.393,-0.335C0.387,-0.388 0.359,-0.415 0.309,-0.415C0.258,-0.415 0.23,-0.388 0.224,-0.335Z" style="fill-rule:nonzero;"/>
        </g>
        <g transform="matrix(300,0,0,300,1225.15,880.56)">
            <path d="M0.05,-0L0.05,-0.546L0.24,-0.546L0.24,-0.441L0.246,-0.441C0.256,-0.48 0.272,-0.508 0.293,-0.526C0.315,-0.544 0.34,-0.553 0.369,-0.553C0.386,-0.553 0.402,-0.55 0.419,-0.545L0.419,-0.378C0.409,-0.382 0.397,-0.384 0.383,-0.385C0.369,-0.387 0.357,-0.388 0.347,-0.388C0.318,-0.388 0.294,-0.378 0.275,-0.359C0.256,-0.34 0.246,-0.315 0.246,-0.284L0.246,-0L0.05,-0Z" style="fill-rule:nonzero;"/>
        </g>
        <g transform="matrix(300,0,0,300,1341.62,880.56)">
            <path d="M0.202,0.009C0.15,0.009 0.107,-0.004 0.074,-0.03C0.041,-0.056 0.024,-0.096 0.024,-0.15C0.024,-0.19 0.033,-0.223 0.051,-0.247C0.069,-0.271 0.093,-0.29 0.123,-0.302C0.153,-0.314 0.187,-0.322 0.225,-0.324C0.27,-0.327 0.303,-0.332 0.322,-0.339C0.341,-0.345 0.351,-0.356 0.351,-0.372L0.351,-0.374C0.351,-0.388 0.345,-0.399 0.334,-0.406C0.323,-0.414 0.308,-0.418 0.289,-0.418C0.271,-0.418 0.255,-0.414 0.241,-0.406C0.228,-0.398 0.22,-0.386 0.217,-0.369L0.04,-0.387C0.045,-0.417 0.058,-0.445 0.078,-0.47C0.098,-0.495 0.126,-0.515 0.162,-0.53C0.198,-0.545 0.241,-0.553 0.292,-0.553C0.344,-0.553 0.389,-0.545 0.427,-0.529C0.465,-0.513 0.495,-0.492 0.516,-0.465C0.536,-0.438 0.547,-0.408 0.547,-0.374L0.547,-0L0.363,-0L0.363,-0.077L0.359,-0.077C0.343,-0.047 0.321,-0.025 0.295,-0.011C0.269,0.002 0.238,0.009 0.202,0.009ZM0.266,-0.115C0.288,-0.115 0.308,-0.122 0.326,-0.136C0.344,-0.149 0.353,-0.169 0.353,-0.193L0.353,-0.238C0.332,-0.23 0.306,-0.224 0.274,-0.219C0.252,-0.215 0.235,-0.208 0.225,-0.198C0.214,-0.188 0.209,-0.176 0.209,-0.162C0.209,-0.147 0.214,-0.135 0.225,-0.127C0.235,-0.119 0.249,-0.115 0.266,-0.115Z" style="fill-rule:nonzero;"/>
        </g>
        <g transform="matrix(300,0,0,300,1505.62,880.56)">
            <path d="M0.313,0.01C0.253,0.01 0.203,-0.002 0.16,-0.026C0.118,-0.049 0.086,-0.082 0.064,-0.124C0.041,-0.166 0.03,-0.215 0.03,-0.271C0.03,-0.327 0.041,-0.377 0.064,-0.419C0.086,-0.461 0.118,-0.494 0.16,-0.517C0.203,-0.541 0.253,-0.553 0.313,-0.553C0.388,-0.553 0.448,-0.534 0.495,-0.496C0.541,-0.459 0.568,-0.408 0.574,-0.345L0.394,-0.318C0.384,-0.377 0.358,-0.406 0.315,-0.406C0.29,-0.406 0.269,-0.395 0.254,-0.373C0.238,-0.351 0.23,-0.317 0.23,-0.272C0.23,-0.228 0.238,-0.194 0.254,-0.171C0.269,-0.148 0.29,-0.137 0.315,-0.137C0.359,-0.137 0.385,-0.167 0.394,-0.228L0.574,-0.201C0.567,-0.136 0.541,-0.085 0.495,-0.047C0.449,-0.009 0.388,0.01 0.313,0.01Z" style="fill-rule:nonzero;"/>
        </g>
        <g transform="matrix(300,0,0,300,1671.53,880.56)">
            <path d="M0.369,-0.546L0.369,-0.403L0.275,-0.403L0.275,-0.175C0.275,-0.153 0.288,-0.141 0.313,-0.141C0.318,-0.141 0.327,-0.142 0.338,-0.143C0.349,-0.145 0.357,-0.146 0.36,-0.147L0.384,-0.007C0.361,-0.001 0.34,0.003 0.32,0.005C0.3,0.007 0.282,0.008 0.264,0.008C0.141,0.008 0.079,-0.047 0.079,-0.157L0.079,-0.403L0.01,-0.403L0.01,-0.546L0.079,-0.546L0.079,-0.676L0.275,-0.676L0.275,-0.546L0.369,-0.546Z" style="fill-rule:nonzero;"/>
        </g>
        <g transform="matrix(300,0,0,300,1776.35,880.56)">
            <path d="M0.05,-0L0.05,-0.546L0.246,-0.546L0.246,-0L0.05,-0ZM0.147,-0.602C0.121,-0.602 0.098,-0.61 0.079,-0.628C0.06,-0.646 0.051,-0.667 0.051,-0.691C0.051,-0.716 0.06,-0.738 0.079,-0.755C0.098,-0.773 0.121,-0.781 0.147,-0.781C0.174,-0.781 0.197,-0.773 0.216,-0.755C0.235,-0.738 0.244,-0.716 0.244,-0.691C0.244,-0.667 0.235,-0.646 0.216,-0.628C0.197,-0.61 0.174,-0.602 0.147,-0.602Z" style="fill-rule:nonzero;"/>
        </g>
        <g transform="matrix(300,0,0,300,1850.12,880.56)">
            <path d="M0.313,0.01C0.254,0.01 0.203,-0.002 0.161,-0.026C0.118,-0.049 0.086,-0.082 0.064,-0.124C0.041,-0.166 0.03,-0.215 0.03,-0.271C0.03,-0.327 0.041,-0.377 0.064,-0.419C0.086,-0.461 0.118,-0.494 0.161,-0.517C0.203,-0.541 0.254,-0.553 0.313,-0.553C0.372,-0.553 0.423,-0.541 0.465,-0.517C0.507,-0.494 0.539,-0.461 0.561,-0.419C0.584,-0.377 0.595,-0.327 0.595,-0.271C0.595,-0.215 0.584,-0.166 0.561,-0.124C0.539,-0.082 0.507,-0.049 0.465,-0.026C0.423,-0.002 0.372,0.01 0.313,0.01ZM0.313,-0.137C0.338,-0.137 0.358,-0.149 0.373,-0.173C0.387,-0.197 0.395,-0.23 0.395,-0.272C0.395,-0.315 0.387,-0.348 0.373,-0.372C0.358,-0.395 0.338,-0.406 0.313,-0.406C0.287,-0.406 0.267,-0.395 0.252,-0.372C0.238,-0.348 0.23,-0.315 0.23,-0.272C0.23,-0.23 0.238,-0.197 0.252,-0.173C0.267,-0.149 0.287,-0.137 0.313,-0.137Z" style="fill-rule:nonzero;"/>
        </g>
        <g transform="matrix(300,0,0,300,2022.62,880.56)">
            <path d="M0.246,-0.307L0.246,-0L0.05,-0L0.05,-0.546L0.234,-0.546L0.237,-0.423C0.251,-0.46 0.271,-0.491 0.298,-0.516C0.326,-0.54 0.363,-0.553 0.409,-0.553C0.448,-0.553 0.482,-0.544 0.51,-0.526C0.538,-0.509 0.561,-0.485 0.576,-0.454C0.592,-0.423 0.6,-0.387 0.6,-0.348L0.6,-0L0.403,-0L0.403,-0.307C0.403,-0.334 0.396,-0.355 0.383,-0.37C0.369,-0.386 0.35,-0.394 0.325,-0.394C0.301,-0.394 0.282,-0.386 0.268,-0.37C0.253,-0.355 0.246,-0.334 0.246,-0.307Z" style="fill-rule:nonzero;"/>
        </g>
        <g transform="matrix(300,0,0,300,2247.21,880.56)">
            <path d="M0.047,-0L0.047,-0.728L0.358,-0.728L0.424,-0.5C0.429,-0.482 0.435,-0.459 0.441,-0.43C0.448,-0.402 0.454,-0.371 0.46,-0.337C0.467,-0.304 0.473,-0.272 0.479,-0.24C0.484,-0.272 0.49,-0.304 0.497,-0.337C0.503,-0.371 0.51,-0.402 0.516,-0.43C0.522,-0.459 0.528,-0.482 0.533,-0.5L0.597,-0.728L0.909,-0.728L0.909,-0L0.71,-0L0.71,-0.281C0.71,-0.3 0.71,-0.325 0.711,-0.357C0.712,-0.389 0.713,-0.424 0.715,-0.462C0.716,-0.499 0.717,-0.536 0.717,-0.571C0.709,-0.535 0.701,-0.498 0.692,-0.46C0.683,-0.423 0.675,-0.389 0.666,-0.358C0.658,-0.327 0.651,-0.301 0.645,-0.281L0.561,-0L0.396,-0L0.311,-0.281C0.305,-0.3 0.298,-0.325 0.29,-0.354C0.281,-0.384 0.273,-0.417 0.264,-0.452C0.255,-0.488 0.247,-0.523 0.239,-0.559C0.24,-0.525 0.241,-0.489 0.242,-0.453C0.243,-0.417 0.244,-0.384 0.245,-0.354C0.246,-0.323 0.246,-0.299 0.246,-0.281L0.246,-0L0.047,-0Z" style="fill-rule:nonzero;"/>
        </g>
        <g transform="matrix(300,0,0,300,2519.03,880.56)">
            <path d="M0.05,-0L0.05,-0.546L0.246,-0.546L0.246,-0L0.05,-0ZM0.147,-0.602C0.121,-0.602 0.098,-0.61 0.079,-0.628C0.06,-0.646 0.051,-0.667 0.051,-0.691C0.051,-0.716 0.06,-0.738 0.079,-0.755C0.098,-0.773 0.121,-0.781 0.147,-0.781C0.174,-0.781 0.197,-0.773 0.216,-0.755C0.235,-0.738 0.244,-0.716 0.244,-0.691C0.244,-0.667 0.235,-0.646 0.216,-0.628C0.197,-0.61 0.174,-0.602 0.147,-0.602Z" style="fill-rule:nonzero;"/>
        </g>
        <g transform="matrix(300,0,0,300,2592.8,880.56)">
            <path d="M0.246,-0.307L0.246,-0L0.05,-0L0.05,-0.546L0.234,-0.546L0.237,-0.423C0.251,-0.46 0.271,-0.491 0.298,-0.516C0.326,-0.54 0.363,-0.553 0.409,-0.553C0.448,-0.553 0.482,-0.544 0.51,-0.526C0.538,-0.509 0.561,-0.485 0.576,-0.454C0.592,-0.423 0.6,-0.387 0.6,-0.348L0.6,-0L0.403,-0L0.403,-0.307C0.403,-0.334 0.396,-0.355 0.383,-0.37C0.369,-0.386 0.35,-0.394 0.325,-0.394C0.301,-0.394 0.282,-0.386 0.268,-0.37C0.253,-0.355 0.246,-0.334 0.246,-0.307Z" style="fill-rule:nonzero;"/>
        </g>
        <g transform="matrix(300,0,0,300,2772.62,880.56)">
            <path d="M0.05,-0L0.05,-0.546L0.246,-0.546L0.246,-0L0.05,-0ZM0.147,-0.602C0.121,-0.602 0.098,-0.61 0.079,-0.628C0.06,-0.646 0.051,-0.667 0.051,-0.691C0.051,-0.716 0.06,-0.738 0.079,-0.755C0.098,-0.773 0.121,-0.781 0.147,-0.781C0.174,-0.781 0.197,-0.773 0.216,-0.755C0.235,-0.738 0.244,-0.716 0.244,-0.691C0.244,-0.667 0.235,-0.646 0.216,-0.628C0.197,-0.61 0.174,-0.602 0.147,-0.602Z" style="fill-rule:nonzero;"/>
        </g>
        <g transform="matrix(300,0,0,300,2846.39,880.56)">
            <path d="M0.246,-0.307L0.246,-0L0.05,-0L0.05,-0.546L0.234,-0.546L0.237,-0.423C0.251,-0.46 0.271,-0.491 0.298,-0.516C0.326,-0.54 0.363,-0.553 0.409,-0.553C0.448,-0.553 0.482,-0.544 0.51,-0.526C0.538,-0.509 0.561,-0.485 0.576,-0.454C0.592,-0.423 0.6,-0.387 0.6,-0.348L0.6,-0L0.403,-0L0.403,-0.307C0.403,-0.334 0.396,-0.355 0.383,-0.37C0.369,-0.386 0.35,-0.394 0.325,-0.394C0.301,-0.394 0.282,-0.386 0.268,-0.37C0.253,-0.355 0.246,-0.334 0.246,-0.307Z" style="fill-rule:nonzero;"/>
        </g>
        <g transform="matrix(300,0,0,300,3026.21,880.56)">
            <path d="M0.311,0.216C0.236,0.216 0.176,0.202 0.129,0.174C0.083,0.147 0.056,0.109 0.048,0.063L0.22,0.037C0.223,0.052 0.233,0.063 0.248,0.072C0.264,0.08 0.285,0.084 0.31,0.084C0.373,0.084 0.404,0.056 0.404,-0.001L0.404,-0.094L0.39,-0.094C0.38,-0.066 0.362,-0.045 0.337,-0.03C0.313,-0.014 0.282,-0.007 0.245,-0.007C0.206,-0.007 0.171,-0.016 0.138,-0.034C0.106,-0.052 0.08,-0.081 0.06,-0.12C0.04,-0.159 0.03,-0.21 0.03,-0.272C0.03,-0.339 0.041,-0.392 0.061,-0.433C0.082,-0.475 0.109,-0.505 0.141,-0.524C0.174,-0.543 0.208,-0.553 0.244,-0.553C0.285,-0.553 0.318,-0.543 0.344,-0.522C0.37,-0.502 0.389,-0.478 0.399,-0.45L0.403,-0.45L0.403,-0.546L0.598,-0.546L0.598,-0.021C0.598,0.031 0.586,0.074 0.562,0.109C0.538,0.144 0.504,0.171 0.461,0.189C0.418,0.207 0.368,0.216 0.311,0.216ZM0.317,-0.146C0.344,-0.146 0.366,-0.158 0.381,-0.18C0.397,-0.202 0.404,-0.233 0.404,-0.272C0.404,-0.313 0.397,-0.345 0.381,-0.368C0.366,-0.391 0.344,-0.402 0.317,-0.402C0.291,-0.402 0.27,-0.391 0.255,-0.368C0.24,-0.345 0.232,-0.313 0.232,-0.272C0.232,-0.232 0.24,-0.201 0.255,-0.179C0.27,-0.157 0.291,-0.146 0.317,-0.146Z" style="fill-rule:nonzero;"/>
        </g>
    </g>
</svg>
