<?xml version="1.0" encoding="UTF-8" standalone="no"?>
<!DOCTYPE svg PUBLIC "-//W3C//DTD SVG 1.1//EN" "http://www.w3.org/Graphics/SVG/1.1/DTD/svg11.dtd">
<svg width="100%" height="100%" viewBox="0 0 2253 663" version="1.1" xmlns="http://www.w3.org/2000/svg" xmlns:xlink="http://www.w3.org/1999/xlink" xml:space="preserve" xmlns:serif="http://www.serif.com/" style="fill-rule:evenodd;clip-rule:evenodd;stroke-linejoin:round;stroke-miterlimit:2;">
    <g transform="matrix(1,0,0,1,-698.697,-1093.88)">
        <g transform="matrix(1,0,0,1,-217.941,-428.322)">
            <g transform="matrix(1,0,0,1,117.537,521.709)">
                <path d="M1736.85,1480.73L1736.85,1351.13L1609.05,1351.13L1735.05,1122.53L1735.05,1000.73L1457.85,1000.73L1457.85,1133.33L1571.25,1133.33L1445.85,1360.73L1445.85,1480.73L1736.85,1480.73Z" style="fill-rule:nonzero;"/>
                <path d="M1885.05,1122.03L1885.05,1001.19L1745.25,1001.19L1745.25,1122.03L1885.05,1122.03ZM1889.25,1480.73C1889.25,1480.73 1885.05,1473.73 1885.05,1466.1L1885.05,1130.93L1745.25,1130.93L1745.25,1463.56C1745.25,1473.73 1747.05,1479.46 1753.05,1480.73L1889.25,1480.73Z" style="fill-rule:nonzero;"/>
                <g transform="matrix(1,0,0,1,-95.5956,0.456)">
                    <path d="M2280.42,1022.62C2264.23,1003.86 2253.99,1000.73 2253.99,1000.73L2500.65,1000.73L2500.65,1133.33L2435.85,1133.33L2435.85,1480.73L2285.85,1480.73L2285.55,1278.2C2298.76,1250.33 2297.12,1203.13 2297.12,1156.37C2297.12,1101.77 2300.45,1045.81 2280.42,1022.62Z" style=""/>
                </g>
                <path d="M2190.14,1156.13C2190.14,1101.53 2193.36,1048.18 2171.76,1022.98C2148.96,996.579 2126.25,1000.73 2081.25,1000.73L1896.45,1000.73L1896.45,1480.73L2046.45,1480.73L2046.45,1312.13C2046.45,1312.13 2066.25,1312.13 2079.45,1311.53C2123.25,1309.13 2145.04,1312.18 2167.84,1290.58C2193.04,1265.98 2190.14,1213.13 2190.14,1156.13ZM2066.85,1160.93L2066.85,1167.53C2066.85,1191.53 2066.25,1196.33 2050.65,1196.33L2046.45,1196.33L2046.45,1130.93L2054.85,1130.93C2064.45,1130.93 2066.85,1137.53 2066.85,1160.93Z" style="fill-rule:nonzero;"/>
            </g>
        </g>
        <g transform="matrix(1,0,0,1,-217.941,-428.322)">
            <g transform="matrix(1,0,0,1,-87.9395,0)">
                <g transform="matrix(1,0,0,1.06,0,-129.378)">
                    <g transform="matrix(150,0,0,150,998.47,2156.3)">
                        <path d="M0.041,-0L0.041,-0.091L0.456,-0.634L0.057,-0.634L0.057,-0.729L0.593,-0.729L0.593,-0.638L0.176,-0.095L0.604,-0.095L0.604,-0L0.041,-0Z" style="fill-rule:nonzero;"/>
                    </g>
                    <g transform="matrix(150,0,0,150,1086.11,2156.3)">
                        <path d="M0.282,0.009C0.231,0.009 0.186,-0.002 0.15,-0.024C0.113,-0.047 0.085,-0.078 0.065,-0.119C0.046,-0.16 0.036,-0.207 0.036,-0.262C0.036,-0.318 0.046,-0.367 0.065,-0.408C0.085,-0.449 0.112,-0.481 0.149,-0.504C0.185,-0.526 0.228,-0.537 0.279,-0.537C0.334,-0.537 0.38,-0.525 0.417,-0.5C0.453,-0.475 0.479,-0.44 0.495,-0.396C0.511,-0.352 0.517,-0.302 0.513,-0.244L0.137,-0.244C0.138,-0.206 0.144,-0.173 0.156,-0.148C0.168,-0.122 0.185,-0.102 0.206,-0.089C0.228,-0.076 0.253,-0.07 0.282,-0.07C0.317,-0.07 0.346,-0.079 0.369,-0.096C0.392,-0.113 0.406,-0.135 0.412,-0.162L0.51,-0.162C0.506,-0.127 0.493,-0.096 0.472,-0.07C0.451,-0.045 0.425,-0.025 0.392,-0.011C0.359,0.002 0.323,0.009 0.282,0.009ZM0.138,-0.301L0.128,-0.314L0.422,-0.314L0.412,-0.3C0.413,-0.337 0.408,-0.367 0.397,-0.39C0.386,-0.413 0.37,-0.43 0.35,-0.442C0.329,-0.453 0.306,-0.458 0.279,-0.458C0.251,-0.458 0.227,-0.452 0.206,-0.44C0.185,-0.428 0.169,-0.411 0.157,-0.387C0.145,-0.364 0.139,-0.335 0.138,-0.301Z" style="fill-rule:nonzero;"/>
                    </g>
                    <g transform="matrix(150,0,0,150,1161.01,2156.3)">
                        <path d="M0.072,-0L0.072,-0.529L0.164,-0.529L0.169,-0.435L0.174,-0.435C0.185,-0.469 0.205,-0.494 0.233,-0.511C0.261,-0.527 0.292,-0.536 0.327,-0.536C0.333,-0.536 0.339,-0.535 0.344,-0.535C0.349,-0.535 0.354,-0.535 0.358,-0.534L0.358,-0.437C0.354,-0.438 0.349,-0.438 0.344,-0.438C0.338,-0.438 0.332,-0.438 0.326,-0.438C0.295,-0.438 0.268,-0.433 0.246,-0.422C0.224,-0.411 0.207,-0.396 0.195,-0.376C0.183,-0.356 0.176,-0.331 0.174,-0.302L0.174,-0L0.072,-0Z" style="fill-rule:nonzero;"/>
                    </g>
                    <g transform="matrix(150,0,0,150,1207.47,2156.3)">
                        <path d="M0.295,0.009C0.256,0.009 0.221,0.003 0.19,-0.01C0.158,-0.022 0.131,-0.041 0.108,-0.065C0.085,-0.089 0.067,-0.117 0.055,-0.151C0.043,-0.184 0.036,-0.222 0.036,-0.263C0.036,-0.318 0.047,-0.366 0.068,-0.407C0.089,-0.448 0.119,-0.48 0.157,-0.503C0.196,-0.526 0.242,-0.537 0.295,-0.537C0.334,-0.537 0.369,-0.531 0.401,-0.519C0.432,-0.506 0.459,-0.488 0.482,-0.464C0.504,-0.44 0.522,-0.411 0.534,-0.378C0.547,-0.344 0.553,-0.306 0.553,-0.264C0.553,-0.21 0.542,-0.163 0.522,-0.122C0.501,-0.081 0.471,-0.049 0.433,-0.026C0.394,-0.003 0.349,0.009 0.295,0.009ZM0.295,-0.077C0.326,-0.077 0.352,-0.084 0.376,-0.099C0.399,-0.113 0.416,-0.134 0.429,-0.162C0.442,-0.19 0.448,-0.224 0.448,-0.264C0.448,-0.294 0.445,-0.32 0.438,-0.344C0.431,-0.367 0.42,-0.386 0.407,-0.403C0.394,-0.419 0.378,-0.431 0.359,-0.439C0.34,-0.448 0.319,-0.452 0.295,-0.452C0.265,-0.452 0.238,-0.445 0.215,-0.43C0.191,-0.415 0.173,-0.394 0.16,-0.366C0.147,-0.339 0.141,-0.304 0.141,-0.263C0.141,-0.234 0.144,-0.208 0.151,-0.185C0.158,-0.161 0.169,-0.142 0.182,-0.126C0.196,-0.11 0.212,-0.098 0.231,-0.09C0.25,-0.081 0.272,-0.077 0.295,-0.077Z" style="fill-rule:nonzero;"/>
                    </g>
                    <g transform="matrix(150,0,0,150,1288.34,2156.3)">
                    </g>
                    <g transform="matrix(150,0,0,150,1314.38,2156.3)">
                        <path d="M0.072,-0L0.072,-0.529L0.175,-0.529L0.175,-0L0.072,-0ZM0.072,-0.61L0.072,-0.729L0.175,-0.729L0.175,-0.61L0.072,-0.61Z" style="fill-rule:nonzero;"/>
                    </g>
                    <g transform="matrix(150,0,0,150,1343.84,2156.3)">
                        <path d="M0.072,-0L0.072,-0.529L0.17,-0.529L0.174,-0.424L0.18,-0.424C0.195,-0.461 0.219,-0.49 0.252,-0.509C0.284,-0.528 0.32,-0.537 0.359,-0.537C0.386,-0.537 0.411,-0.533 0.434,-0.525C0.457,-0.517 0.477,-0.504 0.494,-0.486C0.511,-0.469 0.524,-0.446 0.534,-0.417C0.543,-0.389 0.548,-0.355 0.548,-0.314L0.548,-0L0.445,-0L0.445,-0.293C0.445,-0.329 0.441,-0.359 0.432,-0.382C0.423,-0.406 0.41,-0.423 0.392,-0.435C0.374,-0.446 0.35,-0.452 0.322,-0.452C0.292,-0.452 0.266,-0.445 0.243,-0.43C0.221,-0.415 0.204,-0.396 0.192,-0.371C0.18,-0.347 0.174,-0.319 0.174,-0.289L0.174,-0L0.072,-0Z" style="fill-rule:nonzero;"/>
                    </g>
                    <g transform="matrix(150,0,0,150,1426.6,2156.3)">
                        <path d="M0.223,-0C0.194,-0 0.171,-0.004 0.154,-0.013C0.138,-0.021 0.126,-0.034 0.119,-0.05C0.113,-0.067 0.109,-0.087 0.109,-0.11L0.109,-0.445L0.009,-0.445L0.009,-0.529L0.109,-0.529L0.109,-0.682L0.212,-0.694L0.212,-0.529L0.329,-0.529L0.329,-0.445L0.212,-0.445L0.212,-0.129C0.212,-0.111 0.215,-0.1 0.222,-0.094C0.229,-0.088 0.241,-0.085 0.257,-0.085L0.329,-0.085L0.329,-0L0.223,-0Z" style="fill-rule:nonzero;"/>
                    </g>
                    <g transform="matrix(150,0,0,150,1470.7,2156.3)">
                        <path d="M0.282,0.009C0.231,0.009 0.186,-0.002 0.15,-0.024C0.113,-0.047 0.085,-0.078 0.065,-0.119C0.046,-0.16 0.036,-0.207 0.036,-0.262C0.036,-0.318 0.046,-0.367 0.065,-0.408C0.085,-0.449 0.112,-0.481 0.149,-0.504C0.185,-0.526 0.228,-0.537 0.279,-0.537C0.334,-0.537 0.38,-0.525 0.417,-0.5C0.453,-0.475 0.479,-0.44 0.495,-0.396C0.511,-0.352 0.517,-0.302 0.513,-0.244L0.137,-0.244C0.138,-0.206 0.144,-0.173 0.156,-0.148C0.168,-0.122 0.185,-0.102 0.206,-0.089C0.228,-0.076 0.253,-0.07 0.282,-0.07C0.317,-0.07 0.346,-0.079 0.369,-0.096C0.392,-0.113 0.406,-0.135 0.412,-0.162L0.51,-0.162C0.506,-0.127 0.493,-0.096 0.472,-0.07C0.451,-0.045 0.425,-0.025 0.392,-0.011C0.359,0.002 0.323,0.009 0.282,0.009ZM0.138,-0.301L0.128,-0.314L0.422,-0.314L0.412,-0.3C0.413,-0.337 0.408,-0.367 0.397,-0.39C0.386,-0.413 0.37,-0.43 0.35,-0.442C0.329,-0.453 0.306,-0.458 0.279,-0.458C0.251,-0.458 0.227,-0.452 0.206,-0.44C0.185,-0.428 0.169,-0.411 0.157,-0.387C0.145,-0.364 0.139,-0.335 0.138,-0.301Z" style="fill-rule:nonzero;"/>
                    </g>
                    <g transform="matrix(150,0,0,150,1547.1,2156.3)">
                        <path d="M0.281,0.177C0.239,0.177 0.202,0.171 0.171,0.158C0.139,0.146 0.114,0.129 0.096,0.106C0.077,0.083 0.066,0.056 0.062,0.025L0.162,0.025C0.165,0.041 0.171,0.054 0.182,0.066C0.193,0.077 0.207,0.086 0.224,0.092C0.241,0.098 0.26,0.101 0.283,0.101C0.315,0.101 0.341,0.097 0.363,0.088C0.384,0.078 0.401,0.064 0.412,0.044C0.423,0.024 0.429,-0.002 0.429,-0.035L0.429,-0.138L0.422,-0.138C0.41,-0.106 0.389,-0.08 0.358,-0.06C0.327,-0.041 0.291,-0.031 0.249,-0.031C0.217,-0.031 0.188,-0.036 0.162,-0.047C0.135,-0.059 0.113,-0.075 0.094,-0.097C0.076,-0.119 0.061,-0.145 0.051,-0.177C0.041,-0.208 0.036,-0.244 0.036,-0.284C0.036,-0.338 0.045,-0.384 0.063,-0.422C0.081,-0.46 0.106,-0.488 0.138,-0.508C0.17,-0.528 0.208,-0.538 0.25,-0.538C0.292,-0.538 0.328,-0.528 0.359,-0.509C0.389,-0.489 0.41,-0.463 0.422,-0.431L0.429,-0.431L0.431,-0.529L0.531,-0.529L0.531,-0.049C0.531,-0.007 0.525,0.028 0.513,0.056C0.501,0.085 0.484,0.108 0.462,0.126C0.44,0.144 0.413,0.157 0.383,0.165C0.352,0.173 0.318,0.177 0.281,0.177ZM0.284,-0.111C0.315,-0.111 0.341,-0.118 0.362,-0.132C0.383,-0.146 0.4,-0.164 0.411,-0.186C0.422,-0.207 0.428,-0.23 0.429,-0.253L0.428,-0.317C0.428,-0.34 0.422,-0.362 0.411,-0.383C0.4,-0.405 0.384,-0.422 0.363,-0.436C0.342,-0.45 0.316,-0.457 0.285,-0.457C0.256,-0.457 0.231,-0.45 0.209,-0.437C0.188,-0.423 0.171,-0.404 0.159,-0.378C0.148,-0.352 0.142,-0.321 0.142,-0.284C0.142,-0.247 0.148,-0.215 0.16,-0.189C0.171,-0.164 0.188,-0.144 0.209,-0.131C0.231,-0.118 0.256,-0.111 0.284,-0.111Z" style="fill-rule:nonzero;"/>
                    </g>
                    <g transform="matrix(150,0,0,150,1629.28,2156.3)">
                        <path d="M0.072,-0L0.072,-0.529L0.164,-0.529L0.169,-0.435L0.174,-0.435C0.185,-0.469 0.205,-0.494 0.233,-0.511C0.261,-0.527 0.292,-0.536 0.327,-0.536C0.333,-0.536 0.339,-0.535 0.344,-0.535C0.349,-0.535 0.354,-0.535 0.358,-0.534L0.358,-0.437C0.354,-0.438 0.349,-0.438 0.344,-0.438C0.338,-0.438 0.332,-0.438 0.326,-0.438C0.295,-0.438 0.268,-0.433 0.246,-0.422C0.224,-0.411 0.207,-0.396 0.195,-0.376C0.183,-0.356 0.176,-0.331 0.174,-0.302L0.174,-0L0.072,-0Z" style="fill-rule:nonzero;"/>
                    </g>
                    <g transform="matrix(150,0,0,150,1675.74,2156.3)">
                        <path d="M0.252,0.009C0.22,0.009 0.191,0.003 0.164,-0.009C0.138,-0.021 0.115,-0.038 0.096,-0.062C0.077,-0.085 0.062,-0.113 0.052,-0.147C0.042,-0.181 0.036,-0.22 0.036,-0.265C0.036,-0.324 0.045,-0.373 0.064,-0.414C0.082,-0.455 0.107,-0.486 0.139,-0.507C0.172,-0.528 0.209,-0.538 0.252,-0.538C0.282,-0.538 0.308,-0.533 0.333,-0.524C0.357,-0.515 0.377,-0.501 0.394,-0.485C0.411,-0.468 0.424,-0.448 0.432,-0.425L0.438,-0.425L0.442,-0.529L0.541,-0.529L0.541,-0L0.438,-0L0.438,-0.105L0.432,-0.105C0.42,-0.071 0.397,-0.043 0.366,-0.022C0.335,-0.002 0.296,0.009 0.252,0.009ZM0.288,-0.076C0.321,-0.076 0.348,-0.084 0.37,-0.099C0.392,-0.114 0.409,-0.134 0.42,-0.158C0.431,-0.182 0.437,-0.208 0.437,-0.235L0.437,-0.295C0.437,-0.322 0.431,-0.348 0.42,-0.372C0.409,-0.396 0.392,-0.416 0.37,-0.431C0.348,-0.446 0.321,-0.454 0.288,-0.454C0.259,-0.454 0.233,-0.446 0.211,-0.432C0.189,-0.418 0.172,-0.397 0.16,-0.369C0.148,-0.341 0.142,-0.307 0.142,-0.265C0.142,-0.224 0.148,-0.189 0.16,-0.161C0.172,-0.133 0.189,-0.112 0.211,-0.097C0.233,-0.083 0.259,-0.076 0.288,-0.076Z" style="fill-rule:nonzero;"/>
                    </g>
                    <g transform="matrix(150,0,0,150,1760.19,2156.3)">
                        <path d="M0.223,-0C0.194,-0 0.171,-0.004 0.154,-0.013C0.138,-0.021 0.126,-0.034 0.119,-0.05C0.113,-0.067 0.109,-0.087 0.109,-0.11L0.109,-0.445L0.009,-0.445L0.009,-0.529L0.109,-0.529L0.109,-0.682L0.212,-0.694L0.212,-0.529L0.329,-0.529L0.329,-0.445L0.212,-0.445L0.212,-0.129C0.212,-0.111 0.215,-0.1 0.222,-0.094C0.229,-0.088 0.241,-0.085 0.257,-0.085L0.329,-0.085L0.329,-0L0.223,-0Z" style="fill-rule:nonzero;"/>
                    </g>
                    <g transform="matrix(150,0,0,150,1806.54,2156.3)">
                        <path d="M0.072,-0L0.072,-0.529L0.175,-0.529L0.175,-0L0.072,-0ZM0.072,-0.61L0.072,-0.729L0.175,-0.729L0.175,-0.61L0.072,-0.61Z" style="fill-rule:nonzero;"/>
                    </g>
                    <g transform="matrix(150,0,0,150,1836,2156.3)">
                        <path d="M0.295,0.009C0.256,0.009 0.221,0.003 0.19,-0.01C0.158,-0.022 0.131,-0.041 0.108,-0.065C0.085,-0.089 0.067,-0.117 0.055,-0.151C0.043,-0.184 0.036,-0.222 0.036,-0.263C0.036,-0.318 0.047,-0.366 0.068,-0.407C0.089,-0.448 0.119,-0.48 0.157,-0.503C0.196,-0.526 0.242,-0.537 0.295,-0.537C0.334,-0.537 0.369,-0.531 0.401,-0.519C0.432,-0.506 0.459,-0.488 0.482,-0.464C0.504,-0.44 0.522,-0.411 0.534,-0.378C0.547,-0.344 0.553,-0.306 0.553,-0.264C0.553,-0.21 0.542,-0.163 0.522,-0.122C0.501,-0.081 0.471,-0.049 0.433,-0.026C0.394,-0.003 0.349,0.009 0.295,0.009ZM0.295,-0.077C0.326,-0.077 0.352,-0.084 0.376,-0.099C0.399,-0.113 0.416,-0.134 0.429,-0.162C0.442,-0.19 0.448,-0.224 0.448,-0.264C0.448,-0.294 0.445,-0.32 0.438,-0.344C0.431,-0.367 0.42,-0.386 0.407,-0.403C0.394,-0.419 0.378,-0.431 0.359,-0.439C0.34,-0.448 0.319,-0.452 0.295,-0.452C0.265,-0.452 0.238,-0.445 0.215,-0.43C0.191,-0.415 0.173,-0.394 0.16,-0.366C0.147,-0.339 0.141,-0.304 0.141,-0.263C0.141,-0.234 0.144,-0.208 0.151,-0.185C0.158,-0.161 0.169,-0.142 0.182,-0.126C0.196,-0.11 0.212,-0.098 0.231,-0.09C0.25,-0.081 0.272,-0.077 0.295,-0.077Z" style="fill-rule:nonzero;"/>
                    </g>
                    <g transform="matrix(150,0,0,150,1916.87,2156.3)">
                        <path d="M0.072,-0L0.072,-0.529L0.17,-0.529L0.174,-0.424L0.18,-0.424C0.195,-0.461 0.219,-0.49 0.252,-0.509C0.284,-0.528 0.32,-0.537 0.359,-0.537C0.386,-0.537 0.411,-0.533 0.434,-0.525C0.457,-0.517 0.477,-0.504 0.494,-0.486C0.511,-0.469 0.524,-0.446 0.534,-0.417C0.543,-0.389 0.548,-0.355 0.548,-0.314L0.548,-0L0.445,-0L0.445,-0.293C0.445,-0.329 0.441,-0.359 0.432,-0.382C0.423,-0.406 0.41,-0.423 0.392,-0.435C0.374,-0.446 0.35,-0.452 0.322,-0.452C0.292,-0.452 0.266,-0.445 0.243,-0.43C0.221,-0.415 0.204,-0.396 0.192,-0.371C0.18,-0.347 0.174,-0.319 0.174,-0.289L0.174,-0L0.072,-0Z" style="fill-rule:nonzero;"/>
                    </g>
                    <g transform="matrix(150,0,0,150,2001.58,2156.3)">
                        <path d="M0.033,0.159L0.033,0.104L0.048,0.104C0.066,0.103 0.078,0.097 0.085,0.087C0.092,0.077 0.095,0.063 0.095,0.046L0.095,-0L0.049,-0L0.049,-0.105L0.151,-0.105L0.151,0.052C0.151,0.09 0.143,0.117 0.127,0.133C0.111,0.149 0.088,0.158 0.059,0.159L0.033,0.159Z" style="fill-rule:nonzero;"/>
                    </g>
                    <g transform="matrix(150,0,0,150,2025.04,2156.3)">
                    </g>
                    <g transform="matrix(150,0,0,150,2051.08,2156.3)">
                        <path d="M0.361,0.009C0.332,0.009 0.305,0.005 0.281,-0.005C0.257,-0.014 0.236,-0.027 0.219,-0.044C0.202,-0.061 0.189,-0.081 0.181,-0.104L0.175,-0.104L0.171,-0L0.072,-0L0.072,-0.729L0.175,-0.729L0.175,-0.425L0.181,-0.425C0.193,-0.459 0.216,-0.486 0.247,-0.507C0.278,-0.528 0.316,-0.538 0.361,-0.538C0.393,-0.538 0.422,-0.532 0.449,-0.52C0.475,-0.508 0.498,-0.491 0.517,-0.467C0.536,-0.444 0.551,-0.415 0.561,-0.381C0.571,-0.347 0.577,-0.308 0.577,-0.264C0.577,-0.205 0.568,-0.156 0.55,-0.115C0.531,-0.074 0.506,-0.043 0.474,-0.022C0.441,-0.001 0.404,0.009 0.361,0.009ZM0.325,-0.076C0.354,-0.076 0.38,-0.083 0.402,-0.097C0.424,-0.111 0.441,-0.132 0.453,-0.16C0.465,-0.188 0.471,-0.223 0.471,-0.264C0.471,-0.295 0.468,-0.323 0.461,-0.346C0.454,-0.37 0.444,-0.39 0.431,-0.406C0.418,-0.421 0.403,-0.433 0.385,-0.441C0.367,-0.449 0.347,-0.453 0.325,-0.453C0.292,-0.453 0.265,-0.445 0.243,-0.43C0.221,-0.415 0.204,-0.396 0.193,-0.371C0.181,-0.347 0.176,-0.321 0.176,-0.294L0.176,-0.235C0.176,-0.207 0.181,-0.182 0.193,-0.158C0.204,-0.134 0.221,-0.114 0.243,-0.099C0.265,-0.083 0.292,-0.076 0.325,-0.076Z" style="fill-rule:nonzero;"/>
                    </g>
                    <g transform="matrix(150,0,0,150,2137.03,2156.3)">
                        <path d="M0.295,0.009C0.256,0.009 0.221,0.003 0.19,-0.01C0.158,-0.022 0.131,-0.041 0.108,-0.065C0.085,-0.089 0.067,-0.117 0.055,-0.151C0.043,-0.184 0.036,-0.222 0.036,-0.263C0.036,-0.318 0.047,-0.366 0.068,-0.407C0.089,-0.448 0.119,-0.48 0.157,-0.503C0.196,-0.526 0.242,-0.537 0.295,-0.537C0.334,-0.537 0.369,-0.531 0.401,-0.519C0.432,-0.506 0.459,-0.488 0.482,-0.464C0.504,-0.44 0.522,-0.411 0.534,-0.378C0.547,-0.344 0.553,-0.306 0.553,-0.264C0.553,-0.21 0.542,-0.163 0.522,-0.122C0.501,-0.081 0.471,-0.049 0.433,-0.026C0.394,-0.003 0.349,0.009 0.295,0.009ZM0.295,-0.077C0.326,-0.077 0.352,-0.084 0.376,-0.099C0.399,-0.113 0.416,-0.134 0.429,-0.162C0.442,-0.19 0.448,-0.224 0.448,-0.264C0.448,-0.294 0.445,-0.32 0.438,-0.344C0.431,-0.367 0.42,-0.386 0.407,-0.403C0.394,-0.419 0.378,-0.431 0.359,-0.439C0.34,-0.448 0.319,-0.452 0.295,-0.452C0.265,-0.452 0.238,-0.445 0.215,-0.43C0.191,-0.415 0.173,-0.394 0.16,-0.366C0.147,-0.339 0.141,-0.304 0.141,-0.263C0.141,-0.234 0.144,-0.208 0.151,-0.185C0.158,-0.161 0.169,-0.142 0.182,-0.126C0.196,-0.11 0.212,-0.098 0.231,-0.09C0.25,-0.081 0.272,-0.077 0.295,-0.077Z" style="fill-rule:nonzero;"/>
                    </g>
                    <g transform="matrix(150,0,0,150,2217.9,2156.3)">
                        <path d="M0.257,0.009C0.217,0.009 0.183,0.001 0.155,-0.015C0.126,-0.031 0.104,-0.054 0.089,-0.086C0.074,-0.118 0.067,-0.157 0.067,-0.203L0.067,-0.529L0.17,-0.529L0.17,-0.229C0.17,-0.197 0.174,-0.169 0.183,-0.146C0.191,-0.124 0.205,-0.106 0.223,-0.095C0.242,-0.083 0.266,-0.077 0.295,-0.077C0.324,-0.077 0.35,-0.084 0.371,-0.098C0.393,-0.112 0.41,-0.132 0.422,-0.157C0.434,-0.183 0.44,-0.211 0.44,-0.243L0.44,-0.529L0.543,-0.529L0.543,-0L0.445,-0L0.44,-0.107L0.434,-0.107C0.421,-0.071 0.398,-0.042 0.366,-0.022C0.334,-0.001 0.298,0.009 0.257,0.009Z" style="fill-rule:nonzero;"/>
                    </g>
                    <g transform="matrix(150,0,0,150,2301.86,2156.3)">
                        <path d="M0.072,-0L0.072,-0.529L0.17,-0.529L0.174,-0.424L0.18,-0.424C0.195,-0.461 0.219,-0.49 0.252,-0.509C0.284,-0.528 0.32,-0.537 0.359,-0.537C0.386,-0.537 0.411,-0.533 0.434,-0.525C0.457,-0.517 0.477,-0.504 0.494,-0.486C0.511,-0.469 0.524,-0.446 0.534,-0.417C0.543,-0.389 0.548,-0.355 0.548,-0.314L0.548,-0L0.445,-0L0.445,-0.293C0.445,-0.329 0.441,-0.359 0.432,-0.382C0.423,-0.406 0.41,-0.423 0.392,-0.435C0.374,-0.446 0.35,-0.452 0.322,-0.452C0.292,-0.452 0.266,-0.445 0.243,-0.43C0.221,-0.415 0.204,-0.396 0.192,-0.371C0.18,-0.347 0.174,-0.319 0.174,-0.289L0.174,-0L0.072,-0Z" style="fill-rule:nonzero;"/>
                    </g>
                    <g transform="matrix(150,0,0,150,2386.57,2156.3)">
                        <path d="M0.252,0.009C0.22,0.009 0.191,0.003 0.164,-0.009C0.138,-0.021 0.115,-0.038 0.096,-0.062C0.077,-0.085 0.062,-0.113 0.052,-0.147C0.042,-0.181 0.036,-0.22 0.036,-0.265C0.036,-0.324 0.045,-0.373 0.064,-0.414C0.082,-0.455 0.107,-0.486 0.139,-0.507C0.172,-0.528 0.209,-0.538 0.252,-0.538C0.282,-0.538 0.308,-0.533 0.333,-0.524C0.357,-0.515 0.377,-0.501 0.394,-0.485C0.411,-0.468 0.424,-0.448 0.432,-0.425L0.438,-0.425L0.438,-0.729L0.541,-0.729L0.541,-0L0.442,-0L0.438,-0.105L0.432,-0.105C0.42,-0.071 0.397,-0.043 0.366,-0.022C0.335,-0.002 0.296,0.009 0.252,0.009ZM0.288,-0.076C0.321,-0.076 0.348,-0.084 0.37,-0.099C0.392,-0.114 0.409,-0.134 0.42,-0.158C0.431,-0.182 0.437,-0.208 0.437,-0.235L0.437,-0.295C0.437,-0.315 0.434,-0.335 0.427,-0.354C0.421,-0.373 0.412,-0.39 0.399,-0.405C0.387,-0.42 0.372,-0.431 0.353,-0.44C0.334,-0.449 0.313,-0.454 0.288,-0.454C0.259,-0.454 0.233,-0.446 0.211,-0.432C0.189,-0.418 0.172,-0.397 0.16,-0.369C0.148,-0.341 0.142,-0.307 0.142,-0.265C0.142,-0.224 0.148,-0.189 0.16,-0.161C0.172,-0.133 0.189,-0.112 0.211,-0.097C0.233,-0.083 0.259,-0.076 0.288,-0.076Z" style="fill-rule:nonzero;"/>
                    </g>
                    <g transform="matrix(150,0,0,150,2471.02,2156.3)">
                        <rect x="0.072" y="-0.729" width="0.103" height="0.729" style="fill-rule:nonzero;"/>
                    </g>
                    <g transform="matrix(150,0,0,150,2500.48,2156.3)">
                        <path d="M0.282,0.009C0.231,0.009 0.186,-0.002 0.15,-0.024C0.113,-0.047 0.085,-0.078 0.065,-0.119C0.046,-0.16 0.036,-0.207 0.036,-0.262C0.036,-0.318 0.046,-0.367 0.065,-0.408C0.085,-0.449 0.112,-0.481 0.149,-0.504C0.185,-0.526 0.228,-0.537 0.279,-0.537C0.334,-0.537 0.38,-0.525 0.417,-0.5C0.453,-0.475 0.479,-0.44 0.495,-0.396C0.511,-0.352 0.517,-0.302 0.513,-0.244L0.137,-0.244C0.138,-0.206 0.144,-0.173 0.156,-0.148C0.168,-0.122 0.185,-0.102 0.206,-0.089C0.228,-0.076 0.253,-0.07 0.282,-0.07C0.317,-0.07 0.346,-0.079 0.369,-0.096C0.392,-0.113 0.406,-0.135 0.412,-0.162L0.51,-0.162C0.506,-0.127 0.493,-0.096 0.472,-0.07C0.451,-0.045 0.425,-0.025 0.392,-0.011C0.359,0.002 0.323,0.009 0.282,0.009ZM0.138,-0.301L0.128,-0.314L0.422,-0.314L0.412,-0.3C0.413,-0.337 0.408,-0.367 0.397,-0.39C0.386,-0.413 0.37,-0.43 0.35,-0.442C0.329,-0.453 0.306,-0.458 0.279,-0.458C0.251,-0.458 0.227,-0.452 0.206,-0.44C0.185,-0.428 0.169,-0.411 0.157,-0.387C0.145,-0.364 0.139,-0.335 0.138,-0.301Z" style="fill-rule:nonzero;"/>
                    </g>
                    <g transform="matrix(150,0,0,150,2575.38,2156.3)">
                        <path d="M0.257,0.01C0.211,0.01 0.171,0.003 0.138,-0.012C0.105,-0.027 0.079,-0.047 0.062,-0.074C0.044,-0.1 0.035,-0.131 0.035,-0.166L0.137,-0.166C0.137,-0.131 0.149,-0.106 0.171,-0.09C0.194,-0.074 0.223,-0.065 0.259,-0.065C0.296,-0.065 0.323,-0.072 0.342,-0.086C0.361,-0.099 0.371,-0.118 0.371,-0.143C0.371,-0.161 0.366,-0.176 0.358,-0.186C0.35,-0.197 0.336,-0.205 0.319,-0.211C0.301,-0.217 0.277,-0.222 0.248,-0.226C0.203,-0.232 0.167,-0.241 0.137,-0.252C0.108,-0.264 0.086,-0.279 0.071,-0.299C0.057,-0.32 0.049,-0.346 0.049,-0.379C0.049,-0.411 0.058,-0.439 0.076,-0.463C0.093,-0.486 0.117,-0.505 0.149,-0.518C0.18,-0.532 0.217,-0.539 0.258,-0.539C0.301,-0.539 0.337,-0.532 0.368,-0.518C0.399,-0.504 0.422,-0.485 0.439,-0.46C0.456,-0.436 0.464,-0.406 0.465,-0.373L0.364,-0.373C0.363,-0.394 0.359,-0.411 0.35,-0.425C0.341,-0.438 0.328,-0.448 0.313,-0.454C0.297,-0.46 0.278,-0.463 0.256,-0.463C0.224,-0.463 0.198,-0.456 0.18,-0.443C0.161,-0.429 0.152,-0.411 0.152,-0.389C0.152,-0.372 0.157,-0.358 0.166,-0.348C0.175,-0.337 0.19,-0.329 0.21,-0.323C0.229,-0.318 0.255,-0.312 0.285,-0.308C0.316,-0.304 0.343,-0.298 0.367,-0.291C0.39,-0.284 0.41,-0.275 0.426,-0.263C0.442,-0.251 0.455,-0.236 0.463,-0.218C0.471,-0.2 0.475,-0.178 0.475,-0.152C0.475,-0.1 0.455,-0.06 0.415,-0.032C0.375,-0.004 0.322,0.01 0.257,0.01Z" style="fill-rule:nonzero;"/>
                    </g>
                    <g transform="matrix(150,0,0,150,2644.7,2156.3)">
                        <path d="M0.257,0.01C0.211,0.01 0.171,0.003 0.138,-0.012C0.105,-0.027 0.079,-0.047 0.062,-0.074C0.044,-0.1 0.035,-0.131 0.035,-0.166L0.137,-0.166C0.137,-0.131 0.149,-0.106 0.171,-0.09C0.194,-0.074 0.223,-0.065 0.259,-0.065C0.296,-0.065 0.323,-0.072 0.342,-0.086C0.361,-0.099 0.371,-0.118 0.371,-0.143C0.371,-0.161 0.366,-0.176 0.358,-0.186C0.35,-0.197 0.336,-0.205 0.319,-0.211C0.301,-0.217 0.277,-0.222 0.248,-0.226C0.203,-0.232 0.167,-0.241 0.137,-0.252C0.108,-0.264 0.086,-0.279 0.071,-0.299C0.057,-0.32 0.049,-0.346 0.049,-0.379C0.049,-0.411 0.058,-0.439 0.076,-0.463C0.093,-0.486 0.117,-0.505 0.149,-0.518C0.18,-0.532 0.217,-0.539 0.258,-0.539C0.301,-0.539 0.337,-0.532 0.368,-0.518C0.399,-0.504 0.422,-0.485 0.439,-0.46C0.456,-0.436 0.464,-0.406 0.465,-0.373L0.364,-0.373C0.363,-0.394 0.359,-0.411 0.35,-0.425C0.341,-0.438 0.328,-0.448 0.313,-0.454C0.297,-0.46 0.278,-0.463 0.256,-0.463C0.224,-0.463 0.198,-0.456 0.18,-0.443C0.161,-0.429 0.152,-0.411 0.152,-0.389C0.152,-0.372 0.157,-0.358 0.166,-0.348C0.175,-0.337 0.19,-0.329 0.21,-0.323C0.229,-0.318 0.255,-0.312 0.285,-0.308C0.316,-0.304 0.343,-0.298 0.367,-0.291C0.39,-0.284 0.41,-0.275 0.426,-0.263C0.442,-0.251 0.455,-0.236 0.463,-0.218C0.471,-0.2 0.475,-0.178 0.475,-0.152C0.475,-0.1 0.455,-0.06 0.415,-0.032C0.375,-0.004 0.322,0.01 0.257,0.01Z" style="fill-rule:nonzero;"/>
                    </g>
                    <g transform="matrix(150,0,0,150,2714.02,2156.3)">
                    </g>
                    <g transform="matrix(150,0,0,150,2740.06,2156.3)">
                        <path d="M0.072,-0L0.072,-0.529L0.175,-0.529L0.175,-0L0.072,-0ZM0.072,-0.61L0.072,-0.729L0.175,-0.729L0.175,-0.61L0.072,-0.61Z" style="fill-rule:nonzero;"/>
                    </g>
                    <g transform="matrix(150,0,0,150,2769.52,2156.3)">
                        <path d="M0.072,-0L0.072,-0.529L0.17,-0.529L0.174,-0.424L0.18,-0.424C0.195,-0.461 0.219,-0.49 0.252,-0.509C0.284,-0.528 0.32,-0.537 0.359,-0.537C0.386,-0.537 0.411,-0.533 0.434,-0.525C0.457,-0.517 0.477,-0.504 0.494,-0.486C0.511,-0.469 0.524,-0.446 0.534,-0.417C0.543,-0.389 0.548,-0.355 0.548,-0.314L0.548,-0L0.445,-0L0.445,-0.293C0.445,-0.329 0.441,-0.359 0.432,-0.382C0.423,-0.406 0.41,-0.423 0.392,-0.435C0.374,-0.446 0.35,-0.452 0.322,-0.452C0.292,-0.452 0.266,-0.445 0.243,-0.43C0.221,-0.415 0.204,-0.396 0.192,-0.371C0.18,-0.347 0.174,-0.319 0.174,-0.289L0.174,-0L0.072,-0Z" style="fill-rule:nonzero;"/>
                    </g>
                    <g transform="matrix(150,0,0,150,2854.23,2156.3)">
                        <path d="M0.257,0.01C0.211,0.01 0.171,0.003 0.138,-0.012C0.105,-0.027 0.079,-0.047 0.062,-0.074C0.044,-0.1 0.035,-0.131 0.035,-0.166L0.137,-0.166C0.137,-0.131 0.149,-0.106 0.171,-0.09C0.194,-0.074 0.223,-0.065 0.259,-0.065C0.296,-0.065 0.323,-0.072 0.342,-0.086C0.361,-0.099 0.371,-0.118 0.371,-0.143C0.371,-0.161 0.366,-0.176 0.358,-0.186C0.35,-0.197 0.336,-0.205 0.319,-0.211C0.301,-0.217 0.277,-0.222 0.248,-0.226C0.203,-0.232 0.167,-0.241 0.137,-0.252C0.108,-0.264 0.086,-0.279 0.071,-0.299C0.057,-0.32 0.049,-0.346 0.049,-0.379C0.049,-0.411 0.058,-0.439 0.076,-0.463C0.093,-0.486 0.117,-0.505 0.149,-0.518C0.18,-0.532 0.217,-0.539 0.258,-0.539C0.301,-0.539 0.337,-0.532 0.368,-0.518C0.399,-0.504 0.422,-0.485 0.439,-0.46C0.456,-0.436 0.464,-0.406 0.465,-0.373L0.364,-0.373C0.363,-0.394 0.359,-0.411 0.35,-0.425C0.341,-0.438 0.328,-0.448 0.313,-0.454C0.297,-0.46 0.278,-0.463 0.256,-0.463C0.224,-0.463 0.198,-0.456 0.18,-0.443C0.161,-0.429 0.152,-0.411 0.152,-0.389C0.152,-0.372 0.157,-0.358 0.166,-0.348C0.175,-0.337 0.19,-0.329 0.21,-0.323C0.229,-0.318 0.255,-0.312 0.285,-0.308C0.316,-0.304 0.343,-0.298 0.367,-0.291C0.39,-0.284 0.41,-0.275 0.426,-0.263C0.442,-0.251 0.455,-0.236 0.463,-0.218C0.471,-0.2 0.475,-0.178 0.475,-0.152C0.475,-0.1 0.455,-0.06 0.415,-0.032C0.375,-0.004 0.322,0.01 0.257,0.01Z" style="fill-rule:nonzero;"/>
                    </g>
                    <g transform="matrix(150,0,0,150,2923.55,2156.3)">
                        <path d="M0.072,-0L0.072,-0.529L0.175,-0.529L0.175,-0L0.072,-0ZM0.072,-0.61L0.072,-0.729L0.175,-0.729L0.175,-0.61L0.072,-0.61Z" style="fill-rule:nonzero;"/>
                    </g>
                    <g transform="matrix(150,0,0,150,2953.02,2156.3)">
                        <path d="M0.281,0.177C0.239,0.177 0.202,0.171 0.171,0.158C0.139,0.146 0.114,0.129 0.096,0.106C0.077,0.083 0.066,0.056 0.062,0.025L0.162,0.025C0.165,0.041 0.171,0.054 0.182,0.066C0.193,0.077 0.207,0.086 0.224,0.092C0.241,0.098 0.26,0.101 0.283,0.101C0.315,0.101 0.341,0.097 0.363,0.088C0.384,0.078 0.401,0.064 0.412,0.044C0.423,0.024 0.429,-0.002 0.429,-0.035L0.429,-0.138L0.422,-0.138C0.41,-0.106 0.389,-0.08 0.358,-0.06C0.327,-0.041 0.291,-0.031 0.249,-0.031C0.217,-0.031 0.188,-0.036 0.162,-0.047C0.135,-0.059 0.113,-0.075 0.094,-0.097C0.076,-0.119 0.061,-0.145 0.051,-0.177C0.041,-0.208 0.036,-0.244 0.036,-0.284C0.036,-0.338 0.045,-0.384 0.063,-0.422C0.081,-0.46 0.106,-0.488 0.138,-0.508C0.17,-0.528 0.208,-0.538 0.25,-0.538C0.292,-0.538 0.328,-0.528 0.359,-0.509C0.389,-0.489 0.41,-0.463 0.422,-0.431L0.429,-0.431L0.431,-0.529L0.531,-0.529L0.531,-0.049C0.531,-0.007 0.525,0.028 0.513,0.056C0.501,0.085 0.484,0.108 0.462,0.126C0.44,0.144 0.413,0.157 0.383,0.165C0.352,0.173 0.318,0.177 0.281,0.177ZM0.284,-0.111C0.315,-0.111 0.341,-0.118 0.362,-0.132C0.383,-0.146 0.4,-0.164 0.411,-0.186C0.422,-0.207 0.428,-0.23 0.429,-0.253L0.428,-0.317C0.428,-0.34 0.422,-0.362 0.411,-0.383C0.4,-0.405 0.384,-0.422 0.363,-0.436C0.342,-0.45 0.316,-0.457 0.285,-0.457C0.256,-0.457 0.231,-0.45 0.209,-0.437C0.188,-0.423 0.171,-0.404 0.159,-0.378C0.148,-0.352 0.142,-0.321 0.142,-0.284C0.142,-0.247 0.148,-0.215 0.16,-0.189C0.171,-0.164 0.188,-0.144 0.209,-0.131C0.231,-0.118 0.256,-0.111 0.284,-0.111Z" style="fill-rule:nonzero;"/>
                    </g>
                    <g transform="matrix(150,0,0,150,3035.2,2156.3)">
                        <path d="M0.072,-0L0.072,-0.729L0.174,-0.729L0.174,-0.424L0.18,-0.424C0.195,-0.461 0.219,-0.49 0.252,-0.509C0.284,-0.528 0.32,-0.537 0.359,-0.537C0.386,-0.537 0.411,-0.533 0.434,-0.525C0.457,-0.517 0.477,-0.504 0.494,-0.486C0.511,-0.469 0.524,-0.446 0.534,-0.417C0.543,-0.389 0.548,-0.355 0.548,-0.314L0.548,-0L0.445,-0L0.445,-0.293C0.445,-0.329 0.441,-0.359 0.432,-0.382C0.423,-0.406 0.41,-0.423 0.392,-0.435C0.374,-0.446 0.35,-0.452 0.322,-0.452C0.292,-0.452 0.266,-0.445 0.243,-0.43C0.221,-0.415 0.204,-0.396 0.192,-0.371C0.18,-0.347 0.174,-0.319 0.174,-0.289L0.174,-0L0.072,-0Z" style="fill-rule:nonzero;"/>
                    </g>
                    <g transform="matrix(150,0,0,150,3117.95,2156.3)">
                        <path d="M0.223,-0C0.194,-0 0.171,-0.004 0.154,-0.013C0.138,-0.021 0.126,-0.034 0.119,-0.05C0.113,-0.067 0.109,-0.087 0.109,-0.11L0.109,-0.445L0.009,-0.445L0.009,-0.529L0.109,-0.529L0.109,-0.682L0.212,-0.694L0.212,-0.529L0.329,-0.529L0.329,-0.445L0.212,-0.445L0.212,-0.129C0.212,-0.111 0.215,-0.1 0.222,-0.094C0.229,-0.088 0.241,-0.085 0.257,-0.085L0.329,-0.085L0.329,-0L0.223,-0Z" style="fill-rule:nonzero;"/>
                    </g>
                    <g transform="matrix(150,0,0,150,3164.3,2156.3)">
                        <path d="M0.257,0.01C0.211,0.01 0.171,0.003 0.138,-0.012C0.105,-0.027 0.079,-0.047 0.062,-0.074C0.044,-0.1 0.035,-0.131 0.035,-0.166L0.137,-0.166C0.137,-0.131 0.149,-0.106 0.171,-0.09C0.194,-0.074 0.223,-0.065 0.259,-0.065C0.296,-0.065 0.323,-0.072 0.342,-0.086C0.361,-0.099 0.371,-0.118 0.371,-0.143C0.371,-0.161 0.366,-0.176 0.358,-0.186C0.35,-0.197 0.336,-0.205 0.319,-0.211C0.301,-0.217 0.277,-0.222 0.248,-0.226C0.203,-0.232 0.167,-0.241 0.137,-0.252C0.108,-0.264 0.086,-0.279 0.071,-0.299C0.057,-0.32 0.049,-0.346 0.049,-0.379C0.049,-0.411 0.058,-0.439 0.076,-0.463C0.093,-0.486 0.117,-0.505 0.149,-0.518C0.18,-0.532 0.217,-0.539 0.258,-0.539C0.301,-0.539 0.337,-0.532 0.368,-0.518C0.399,-0.504 0.422,-0.485 0.439,-0.46C0.456,-0.436 0.464,-0.406 0.465,-0.373L0.364,-0.373C0.363,-0.394 0.359,-0.411 0.35,-0.425C0.341,-0.438 0.328,-0.448 0.313,-0.454C0.297,-0.46 0.278,-0.463 0.256,-0.463C0.224,-0.463 0.198,-0.456 0.18,-0.443C0.161,-0.429 0.152,-0.411 0.152,-0.389C0.152,-0.372 0.157,-0.358 0.166,-0.348C0.175,-0.337 0.19,-0.329 0.21,-0.323C0.229,-0.318 0.255,-0.312 0.285,-0.308C0.316,-0.304 0.343,-0.298 0.367,-0.291C0.39,-0.284 0.41,-0.275 0.426,-0.263C0.442,-0.251 0.455,-0.236 0.463,-0.218C0.471,-0.2 0.475,-0.178 0.475,-0.152C0.475,-0.1 0.455,-0.06 0.415,-0.032C0.375,-0.004 0.322,0.01 0.257,0.01Z" style="fill-rule:nonzero;"/>
                    </g>
                    <g transform="matrix(150,0,0,150,3233.63,2156.3)">
                        <rect x="0.055" y="-0.105" width="0.102" height="0.105" style="fill-rule:nonzero;"/>
                    </g>
                    <g transform="matrix(150,0,0,150,3265.58,2156.3)">
                    </g>
                </g>
            </g>
        </g>
    </g>
</svg>
